<?xml version="1.0" encoding="iso-8859-1"?>
<!-- Generator: Adobe Illustrator 19.0.0, SVG Export Plug-In . SVG Version: 6.00 Build 0)  -->
<svg version="1.1" id="Capa_1" xmlns="http://www.w3.org/2000/svg" xmlns:xlink="http://www.w3.org/1999/xlink" x="0px" y="0px"
	 viewBox="0 0 512.006 512.006" style="enable-background:new 0 0 512.006 512.006;" xml:space="preserve">
<g transform="translate(-1 -1)">
	<path style="fill:#EACA6F;" d="M152.868,443.583l49.222-35.159c6.708-4.791,9.12-13.639,5.772-21.172l-22.917-51.563
		c-3.745-8.425-2.753-18.203,2.606-25.706l26.225-36.713c5.287-7.402,6.328-17.026,2.745-25.387L196.257,200.6l0.006-0.001
		l-0.006-43.389l138.847,17.356l-32.679,37.787c-6.455,8.606-6.951,20.296-1.25,29.418l27.43,43.887
		c4.116,6.585,5.077,14.664,2.621,22.031l-27.088,81.264c-2.259,6.778-0.134,14.248,5.354,18.821l42.968,35.808l-43.39,52.068
		H204.935L152.868,443.583z"/>
	<path style="fill:#CD4F38;" d="M152.868,452.261v-8.678h41.37c6.999,0,13.866,1.902,19.868,5.503l8.366,5.019
		c15.195,9.117,34.644,6.722,47.174-5.808l0.037-0.037c8.426-8.426,20.271-12.49,32.096-11.012l50.683,6.335v8.678
		c0,16.111-6.4,31.562-17.792,42.954c-11.392,11.392-26.843,17.792-42.954,17.792h-78.102c-16.111,0-31.562-6.4-42.954-17.792
		C159.268,483.822,152.868,468.371,152.868,452.261L152.868,452.261z"/>
	<g>
		<path style="fill:#3A3E48;" d="M239.647,356.803c-4.633,0.099-9.105-1.698-12.381-4.975c-3.276-3.276-5.073-7.749-4.975-12.381
			c0.014-4.735,3.82-8.585,8.555-8.652c4.735-0.067,8.649,3.674,8.797,8.407c4.812,0.066,8.679,3.986,8.68,8.799
			C248.324,352.813,244.46,356.734,239.647,356.803L239.647,356.803z"/>
		<path style="fill:#3A3E48;" d="M274.359,339.447c-4.793,0-8.678-3.885-8.678-8.678c0-4.793,3.885-8.678,8.678-8.678
			c0-4.793,3.885-8.678,8.678-8.678c4.793,0,8.678,3.885,8.678,8.678c0.099,4.633-1.698,9.105-4.975,12.381
			C283.464,337.749,278.992,339.546,274.359,339.447L274.359,339.447z"/>
		<path style="fill:#3A3E48;" d="M257.003,304.735c-4.633,0.099-9.105-1.698-12.381-4.975c-3.276-3.276-5.073-7.749-4.975-12.381
			c0.013-4.735,3.82-8.585,8.555-8.652c4.735-0.067,8.649,3.674,8.797,8.407c4.812,0.066,8.679,3.986,8.68,8.799
			C265.68,300.745,261.816,304.666,257.003,304.735L257.003,304.735z"/>
	</g>
	<path style="fill:#CD4F38;" d="M317.749,131.176H196.257c-25.262,1.399-44.649,22.941-43.39,48.21v2.692
		c-0.11,3.984,2.251,7.623,5.934,9.147l14.97,5.544c19.707,7.277,41.764,3.995,58.498-8.705l0.011-0.008
		c15.276-11.574,35.068-15.383,53.549-10.306l64.527,17.924c2.744,0.588,5.605-0.148,7.725-1.987
		c2.12-1.839,3.252-4.567,3.058-7.367v-6.935C362.398,154.116,343.011,132.575,317.749,131.176L317.749,131.176z"/>
	<path style="fill:#936642;" d="M257.016,139.854c-2.302,0.001-4.509-0.913-6.137-2.541c-1.628-1.628-2.542-3.835-2.541-6.137
		c0-71.746,45.555-107.178,72.775-128.339c2.446-1.909,5.725-2.367,8.6-1.2c2.875,1.167,4.908,3.78,5.332,6.854
		s-0.827,6.14-3.279,8.041c-26.309,20.466-66.072,51.39-66.072,114.644c0.001,2.302-0.913,4.509-2.541,6.137
		C261.525,138.94,259.318,139.854,257.016,139.854L257.016,139.854z"/>
	<path style="fill:#5D9069;" d="M196.257,9.684h21.504c26.465,0,47.92,21.454,47.92,47.92v21.504h-21.504
		c-26.465,0-47.92-21.454-47.92-47.92V9.684z"/>
</g>
<g>
</g>
<g>
</g>
<g>
</g>
<g>
</g>
<g>
</g>
<g>
</g>
<g>
</g>
<g>
</g>
<g>
</g>
<g>
</g>
<g>
</g>
<g>
</g>
<g>
</g>
<g>
</g>
<g>
</g>
</svg>
