<?xml version="1.0" encoding="UTF-8" standalone="no"?>
<!-- Created with Inkscape (http://www.inkscape.org/) -->

<svg
   version="1.1"
   id="svg852"
   width="682.66669"
   height="682.66669"
   viewBox="0 0 682.66669 682.66669"
   xmlns="http://www.w3.org/2000/svg"
   xmlns:svg="http://www.w3.org/2000/svg">
  <defs
     id="defs856">
    <clipPath
       clipPathUnits="userSpaceOnUse"
       id="clipPath866">
      <path
         d="M 0,512 H 512 V 0 H 0 Z"
         id="path864" />
    </clipPath>
  </defs>
  <g
     id="g858"
     transform="matrix(1.3333333,0,0,-1.3333333,0,682.66667)">
    <g
       id="g860">
      <g
         id="g862"
         clip-path="url(#clipPath866)">
        <g
           id="g868"
           transform="translate(302.5933,219.3228)">
          <path
             d="m 0,0 c 31.672,-15.153 65.116,-19.218 100.334,-12.194 22.979,4.582 39.446,24.891 39.446,48.321 0,4.924 -4.94,8.281 -9.537,6.517 C 86.829,25.982 43.415,27.298 0,46.593 Z"
             style="fill:#edba48;fill-opacity:1;fill-rule:nonzero;stroke:none"
             id="path870" />
        </g>
        <g
           id="g872"
           transform="translate(302.5933,219.3228)">
          <path
             d="M 0,0 C 22.412,-10.723 45.711,-15.893 69.898,-15.511 52.45,-4.585 39.927,13.508 36.484,34.611 24.323,37.195 12.162,41.188 0,46.594 Z"
             style="fill:#e2a02b;fill-opacity:1;fill-rule:nonzero;stroke:none"
             id="path874" />
        </g>
        <g
           id="g876"
           transform="translate(271.6499,306.9785)">
          <path
             d="m 0,0 h -31.3 v 45.65 c 0,15.943 7.842,30.857 20.975,39.895 L 2.568,94.417 20.311,68.631 7.418,59.76 C 2.773,56.563 0,51.289 0,45.65 Z"
             style="fill:#549310;fill-opacity:1;fill-rule:nonzero;stroke:none"
             id="path878" />
        </g>
        <g
           id="g880"
           transform="translate(209.4067,219.3228)">
          <path
             d="m 0,0 c -31.672,-15.153 -65.116,-19.218 -100.334,-12.194 -22.979,4.582 -39.446,24.891 -39.446,48.321 0,4.924 4.94,8.281 9.537,6.517 C -86.829,25.982 -43.415,27.298 0,46.593 Z"
             style="fill:#edba48;fill-opacity:1;fill-rule:nonzero;stroke:none"
             id="path882" />
        </g>
        <g
           id="g884"
           transform="translate(139.0728,207.1284)">
          <path
             d="m 0,0 c -22.977,4.582 -39.444,24.888 -39.446,48.316 -6.821,1.731 -13.642,3.905 -20.463,6.522 -4.597,1.765 -9.537,-1.592 -9.537,-6.516 v 0 C -69.446,24.891 -52.979,4.583 -30,0 -13.682,-3.254 2.255,-4.128 17.812,-2.621 11.926,-2.068 5.989,-1.194 0,0"
             style="fill:#e2a02b;fill-opacity:1;fill-rule:nonzero;stroke:none"
             id="path886" />
        </g>
        <g
           id="g888"
           transform="translate(240.3501,326.0601)">
          <path
             d="M 0,0 V 26.57 C 0,42.51 7.84,57.43 20.98,66.46 L 33.87,75.34 51.61,49.55 38.72,40.68 C 34.07,37.48 31.3,32.21 31.3,26.57 V 0"
             style="fill:none;stroke:#000000;stroke-width:15;stroke-linecap:round;stroke-linejoin:round;stroke-miterlimit:10;stroke-dasharray:none;stroke-opacity:1"
             id="path890" />
        </g>
        <g
           id="g892"
           transform="translate(193.6802,259.71)">
          <path
             d="m 0,0 c -38.18,-13.15 -76.34,-12.4 -114.52,2.26 -0.84,0.32 -1.7,0.47 -2.53,0.47 -3.71,0 -7,-2.97 -7,-6.99 0,-23.43 16.46,-43.74 39.44,-48.32 21.98,-4.39 43.26,-4.45 63.86,-0.2"
             style="fill:none;stroke:#000000;stroke-width:15;stroke-linecap:round;stroke-linejoin:round;stroke-miterlimit:10;stroke-dasharray:none;stroke-opacity:1"
             id="path894" />
        </g>
        <g
           id="g896"
           transform="translate(397.3198,252.3398)">
          <path
             d="m 0,0 c 11.84,1.87 23.68,5.08 35.52,9.63 0.84,0.32 1.7,0.47 2.53,0.47 3.71,0 7,-2.97 7,-6.99 0,-23.43 -16.46,-43.74 -39.44,-48.32 -21.98,-4.39 -43.26,-4.45 -63.86,-0.2"
             style="fill:none;stroke:#000000;stroke-width:15;stroke-linecap:round;stroke-linejoin:round;stroke-miterlimit:10;stroke-dasharray:none;stroke-opacity:1"
             id="path898" />
        </g>
        <g
           id="g900"
           transform="translate(364.48,250.6001)">
          <path
             d="M 0,0 C -15.38,0.77 -30.77,3.81 -46.16,9.11"
             style="fill:none;stroke:#000000;stroke-width:15;stroke-linecap:round;stroke-linejoin:round;stroke-miterlimit:10;stroke-dasharray:none;stroke-opacity:1"
             id="path902" />
        </g>
        <g
           id="g904"
           transform="translate(318.1245,265.9165)">
          <path
             d="m 0,0 v -0.187 c 0,-51.362 41.638,-93 93,-93 h 86.374 c 3.866,0 7,-3.134 7,-7 0,-30.444 -24.681,-55.125 -55.125,-55.125 H 61.875 c -68.483,0 -124,55.517 -124,124 V 62.124 C -27.814,62.124 0,34.31 0,0"
             style="fill:#edba48;fill-opacity:1;fill-rule:nonzero;stroke:none"
             id="path906" />
        </g>
        <g
           id="g908"
           transform="translate(286,234.605)">
          <path
             d="m 0,0 v 85.725 c -8.894,4.914 -19.12,7.711 -30,7.711 V 0 c 0,-68.483 55.517,-124 124,-124 h 30 C 55.517,-124 0,-68.483 0,0"
             style="fill:#e2a02b;fill-opacity:1;fill-rule:nonzero;stroke:none"
             id="path910" />
        </g>
        <g
           id="g912"
           transform="translate(193.8755,265.9165)">
          <path
             d="m 0,0 v -0.187 c 0,-51.362 -41.638,-93 -93,-93 h -86.374 c -3.866,0 -7,-3.134 -7,-7 0,-30.444 24.681,-55.125 55.125,-55.125 h 69.374 c 68.483,0 124,55.517 124,124 V 62.124 C 27.814,62.124 0,34.31 0,0"
             style="fill:#edba48;fill-opacity:1;fill-rule:nonzero;stroke:none"
             id="path914" />
        </g>
        <g
           id="g916"
           transform="translate(223.8755,265.7295)">
          <path
             d="m 0,0 v 0.187 c 0,23.431 12.971,43.831 32.125,54.414 v 7.711 C -2.186,62.312 -30,34.497 -30,0.187 V 0 c 0,-51.362 -41.638,-93 -93,-93 h 30 c 51.362,0 93,41.638 93,93"
             style="fill:#e2a02b;fill-opacity:1;fill-rule:nonzero;stroke:none"
             id="path918" />
        </g>
        <g
           id="g920"
           transform="translate(37.502,165.7295)">
          <path
             d="m 0,0 v 0 c 0,3.866 3.134,7 7,7 h -30 c -3.866,0 -7,-3.134 -7,-7 0,-30.444 24.68,-55.125 55.125,-55.125 h 30 C 24.68,-55.125 0,-30.444 0,0"
             style="fill:#e2a02b;fill-opacity:1;fill-rule:nonzero;stroke:none"
             id="path922" />
        </g>
        <g
           id="g924"
           transform="translate(145.8701,111.3701)">
          <path
             d="m 0,0 c 61.95,6.89 110.13,59.44 110.13,123.23 v 93.44 C 92.97,216.67 77.45,209.72 66.2,198.48 54.96,187.23 48.01,171.71 48.01,154.55 v -0.19 c 0,-51.36 -41.64,-93 -93,-93 h -86.38 c -3.86,0 -7,-3.13 -7,-7 0,-15.22 6.17,-29 16.15,-38.98 9.97,-9.98 23.75,-16.15 38.98,-16.15 h 50.55"
             style="fill:none;stroke:#000000;stroke-width:15;stroke-linecap:round;stroke-linejoin:round;stroke-miterlimit:10;stroke-dasharray:none;stroke-opacity:1"
             id="path926" />
        </g>
        <g
           id="g928"
           transform="translate(437.7002,110.6001)">
          <path
             d="m 0,0 h 11.67 c 15.23,0 29.01,6.17 38.98,16.15 9.98,9.98 16.15,23.76 16.15,38.98 0,3.87 -3.14,7 -7,7 h -86.38 c -51.36,0 -93,41.64 -93,93 v 0.19 c 0,17.16 -6.95,32.68 -18.19,43.93 -11.25,11.24 -26.77,18.19 -43.93,18.19 V 124 c 0,-68.48 55.52,-124 124,-124 h 25.02"
             style="fill:none;stroke:#000000;stroke-width:15;stroke-linecap:round;stroke-linejoin:round;stroke-miterlimit:10;stroke-dasharray:none;stroke-opacity:1"
             id="path930" />
        </g>
      </g>
    </g>
  </g>
</svg>
