<?xml version="1.0" encoding="UTF-8" standalone="no"?>
<!-- Created with Inkscape (http://www.inkscape.org/) -->

<svg
   version="1.1"
   id="svg3039"
   xml:space="preserve"
   width="682.66669"
   height="682.66669"
   viewBox="0 0 682.66669 682.66669"
   xmlns="http://www.w3.org/2000/svg"
   xmlns:svg="http://www.w3.org/2000/svg"><defs
     id="defs3043"><clipPath
       clipPathUnits="userSpaceOnUse"
       id="clipPath3053"><path
         d="M 0,512 H 512 V 0 H 0 Z"
         id="path3051" /></clipPath></defs><g
     id="g3045"
     transform="matrix(1.3333333,0,0,-1.3333333,0,682.66667)"><g
       id="g3047"><g
         id="g3049"
         clip-path="url(#clipPath3053)"><g
           id="g3055"
           transform="translate(368.4717,396.7573)"><path
             d="M 0,0 28.284,-28.285 85.191,-85.191 C 126.622,-43.76 142.989,17.138 128.148,73.793 125.172,85.981 115.804,96.21 102.827,99.667 45.98,114.847 -15.286,98.527 -56.907,56.907 Z"
             style="fill:#ffecd1;fill-opacity:1;fill-rule:evenodd;stroke:none"
             id="path3057" /></g><g
           id="g3059"
           transform="translate(365.7393,337.4556)"><path
             d="M 0,0 31.017,31.017 2.732,59.302 -28.304,28.266 -105.026,93.055 c -8.421,7.139 -21.036,6.1 -28.174,-2.321 -7.14,-8.42 -6.101,-21.034 2.32,-28.173 l 74.206,-62.665 -35.272,-35.272 -58.066,49.033 c -8.42,7.139 -21.034,6.1 -28.174,-2.32 -7.138,-8.42 -6.099,-21.035 2.322,-28.174 l 55.549,-46.909 -35.273,-35.272 -31.261,26.398 c -8.42,7.139 -21.034,6.1 -28.173,-2.32 -7.139,-8.421 -6.1,-21.035 2.32,-28.174 l 28.745,-24.274 -30.804,-30.803 -16.388,-16.39 c -7.811,-7.81 -7.811,-20.473 0,-28.284 7.81,-7.81 20.473,-7.81 28.284,0 l 16.388,16.389 30.824,30.823 24.483,-28.993 c 7.139,-8.42 19.753,-9.459 28.174,-2.32 8.42,7.139 9.459,19.754 2.32,28.174 l -26.608,31.509 35.272,35.272 47.118,-55.798 c 7.14,-8.42 19.754,-9.459 28.174,-2.319 8.421,7.138 9.46,19.753 2.321,28.173 l -49.244,58.313 35.273,35.273 62.874,-74.455 c 7.14,-8.42 19.753,-9.459 28.174,-2.32 8.42,7.14 9.46,19.753 2.32,28.174 z"
             style="fill:#ffd89e;fill-opacity:1;fill-rule:evenodd;stroke:none"
             id="path3061" /></g><g
           id="g3063"
           transform="translate(197.7471,94.8511)"><path
             d="M 0,0 C 0,20.462 -6.698,40.083 -18.484,56.129 L -34.873,39.74 c -7.811,-7.811 -20.474,-7.811 -28.284,0 -7.811,7.81 -7.811,20.474 0,28.284 l 16.388,16.389 c -16.044,11.786 -35.666,18.484 -56.128,18.484 -33.754,0 -65.214,-18.225 -82.11,-47.431 -3.86,-6.664 -3.512,-14.611 0.224,-20.759 14.982,-25.619 41.19,-42.696 70.269,-46.324 3.628,-29.078 20.705,-55.286 46.324,-70.268 6.148,-3.736 14.094,-4.085 20.759,-0.225 C -18.225,-65.214 0,-33.753 0,0"
             style="fill:#ffecd1;fill-opacity:1;fill-rule:evenodd;stroke:none"
             id="path3065" /></g><g
           id="g3067"
           transform="translate(496.6201,470.5508)"><path
             d="m 0,0 c 14.841,-56.655 -1.526,-117.554 -42.957,-158.985 l -142.099,142.099 c 41.621,41.62 102.887,57.94 159.735,42.761 C -12.345,22.417 -2.977,12.188 0,0 Z"
             style="fill:none;stroke:#000000;stroke-width:20;stroke-linecap:round;stroke-linejoin:round;stroke-miterlimit:22.926;stroke-dasharray:none;stroke-opacity:1"
             id="path3069" /></g><g
           id="g3071"
           transform="translate(193.1777,123.7979)"><path
             d="m 0,0 c -3.15,9.757 -7.861,18.941 -13.915,27.182 m -28.284,28.284 c -16.045,11.786 -35.666,18.484 -56.129,18.484 -33.754,0 -65.214,-18.225 -82.109,-47.431 -3.861,-6.664 -3.512,-14.611 0.223,-20.759 14.983,-25.618 41.191,-42.696 70.27,-46.323 3.628,-29.079 20.705,-55.287 46.323,-70.269 6.148,-3.736 14.095,-4.085 20.76,-0.225 13.546,7.837 24.727,18.808 32.827,31.687"
             style="fill:none;stroke:#000000;stroke-width:20;stroke-linecap:round;stroke-linejoin:round;stroke-miterlimit:22.926;stroke-dasharray:none;stroke-opacity:1"
             id="path3073" /></g><g
           id="g3075"
           transform="translate(329.6318,372.3101)"><path
             d="M 0,0 7.804,-6.589 38.84,24.447 m 28.284,-28.284 -31.017,-31.017 64.998,-76.971 c 7.14,-8.42 6.1,-21.034 -2.32,-28.174 -8.421,-7.139 -21.034,-6.1 -28.174,2.321 l -62.874,74.454 -35.272,-35.272 49.243,-58.313 c 7.14,-8.421 6.101,-21.035 -2.32,-28.174 -8.42,-7.14 -21.034,-6.1 -28.174,2.32 l -47.118,55.797 -35.273,-35.272 26.609,-31.508 c 7.138,-8.421 6.099,-21.035 -2.321,-28.174 -8.421,-7.14 -21.035,-6.1 -28.174,2.32 l -24.483,28.993 -47.212,-47.212 c -7.81,-7.811 -20.473,-7.811 -28.284,0 -7.811,7.81 -7.811,20.474 0,28.284 l 47.192,47.193 -28.745,24.273 c -8.42,7.139 -9.459,19.754 -2.32,28.174 7.14,8.42 19.754,9.46 28.174,2.32 l 31.261,-26.398 35.272,35.272 -55.549,46.91 c -8.421,7.139 -9.46,19.753 -2.321,28.173 7.14,8.421 19.754,9.46 28.174,2.321 l 58.065,-49.034 35.273,35.273 -74.206,62.664 c -8.421,7.139 -9.46,19.753 -2.321,28.174 7.139,8.42 19.753,9.459 28.174,2.32 l 7.797,-6.585"
             style="fill:none;stroke:#000000;stroke-width:20;stroke-linecap:round;stroke-linejoin:round;stroke-miterlimit:22.926;stroke-dasharray:none;stroke-opacity:1"
             id="path3077" /></g><g
           id="g3079"
           transform="translate(411.9199,467.4233)"><path
             d="M 0,0 V -37"
             style="fill:none;stroke:#000000;stroke-width:20;stroke-linecap:round;stroke-linejoin:round;stroke-miterlimit:22.926;stroke-dasharray:none;stroke-opacity:1"
             id="path3081" /></g><g
           id="g3083"
           transform="translate(393.4199,448.9233)"><path
             d="M 0,0 H 37"
             style="fill:none;stroke:#000000;stroke-width:20;stroke-linecap:round;stroke-linejoin:round;stroke-miterlimit:22.926;stroke-dasharray:none;stroke-opacity:1"
             id="path3085" /></g><g
           id="g3087"
           transform="translate(299.0684,398.1201)"><path
             d="M 0,0 0.006,-0.005"
             style="fill:none;stroke:#000000;stroke-width:20;stroke-linecap:round;stroke-linejoin:round;stroke-miterlimit:2.613;stroke-dasharray:none;stroke-opacity:1"
             id="path3089" /></g><g
           id="g3091"
           transform="translate(197.002,83.0527)"><path
             d="M 0,0 -0.001,-0.007"
             style="fill:none;stroke:#000000;stroke-width:20;stroke-linecap:round;stroke-linejoin:round;stroke-miterlimit:2.613;stroke-dasharray:none;stroke-opacity:1"
             id="path3093" /></g></g></g></g></svg>
