<svg id="Crumpled_Paper" enable-background="new 0 0 64 64" viewBox="0 0 64 64" xmlns="http://www.w3.org/2000/svg"><g><path d="m22.98121 2.46437c-2.95821-.56554-8.94554-.84889-9.39374 2.39841-.26943 1.95213-1.59894 7.79479-1.59894 7.79479s-5.86065 2.88469-6.99534 4.7968c-.72499 1.22171-.68676 3.0775-.5996 6.79547.12192 5.20097.89901 6.83763-.19987 8.99403-1.13955 2.23624-3.0487 1.71925-3.39774 3.19785-.53566 2.26925 3.30923 4.59721 10.79281 10.79281 3.29427 2.7273 4.54611 2.96651 5.59627 4.7968 2.09332 3.64835.39778 6.2258 2.19854 8.19456 2.9691 3.24607 11.15186.14575 12.59161-.39977 7.6333-2.89226 5.53982-9.1744 11.89491-10.52522 13.20162 5.38605 9.69071-8.86185 9.69071-8.86185s7.41681-.74477 9.19387-3.19788c1.86478-2.57421-2.50024-7.4292-9.39375-19.18721-6.16322-10.51239-7.58767-15.01256-11.19252-15.18984-3.77178-.18548-5.00587 4.60366-9.59361 4.39706-3.96497-.17856-4.48844-3.82082-9.59361-4.79681z" fill="#fff2ee"/><path d="m62.76271 37.24475c-.62436.85629-1.96236 1.51636-3.42525 1.99807.42814-1.338.55304-2.78303.10704-4.17461-.30336-.94546-4.70978-8.11717-6.5295-11.18571-3.4431-5.78014-4.76324-9.13407-8.81296-15.14614-.76711-1.12393-1.56993-2.2656-2.97925-2.676-3.38964-.99904-6.15482 3.42536-9.40171 2.56896-.94546-.23193-2.15857-.99903-3.24689-3.24689 1.15964.96343 2.26571 1.784 4.10328 1.87329 4.58489.21407 5.81586-4.58489 9.59793-4.38868 3.6036.17836 5.03078 4.67407 11.1856 15.18185 6.88632 11.75651 11.25703 16.6269 9.40171 19.19586z" fill="#fff"/><path d="m46.88507 50.26793c1.44503-.58875 2.92579-1.55207 3.53239-3.10414.28539-.7315.35671-1.49861.46386-2.90793.10704-1.42718.10704-2.676.05347-3.69289.94557-.01786 1.81971-.07143 2.62253-.12489 0 0 2.94353 11.93495-6.67225 9.82985z" fill="#fff"/><g fill="#231f20"><path d="m64 35.85102c-.14276-2.55126-1.67707-4.56732-2.83678-6.63694-3.22924-5.19171-6.51194-10.27649-9.45576-15.57524-1.51645-2.64045-2.89025-5.33447-4.62089-7.93931-.8742-1.2489-1.89115-2.69402-3.65741-3.31842-3.46117-1.28462-5.9054 2.42636-8.4388 3.71098-4.81712 2.26574-7.17216-3.83589-11.86438-4.40681-3.17566-.39245-8.95616-1.17746-10.16934 2.87239-.53532 2.46208-1.124 5.06692-1.7485 7.51114-1.58788.82073-3.12219 1.67707-4.62078 2.71188-.78501.58868-1.58788 1.14186-2.30157 2.1587-.64225 1.07053-.71358 2.17667-.76715 3.15791-.19623 3.69312.42817 7.70737.42817 11.25773-.21408 1.9982-1.17746 2.65831-3.05076 3.6574-2.19453 1.80197.14265 4.53171 1.67707 5.7805 2.90811 2.53352 5.9054 4.74579 8.81351 7.17216 1.98034 1.81983 4.7814 2.87239 5.60202 5.60213.69583 1.85543.2498 3.49689.73155 5.5307 2.06952 5.69131 9.8126 3.17577 13.93389 1.73064 3.83577-1.05267 6.67255-4.62089 8.34962-7.92145.90991-1.44512 2.17656-2.37289 3.80016-2.78321 5.20957 2.15871 10.57976 1.67707 10.99007-5.08478.08929-1.32022 0-2.60473-.21408-3.88934 3.44331-.53522 9.22392-1.3737 9.42014-5.29876zm-2.33718 1.32023c-2.17667 1.57003-5.47723 2.03391-8.18911 2.4085-.51735.05357-.89206.57093-.74929 1.08839 1.49859 7.36838-1.03482 10.99007-8.54585 7.90359-.92777-.17847-2.58698.6244-3.38985 1.17747-2.42636 1.67707-3.30056 4.92416-5.20957 6.83317-2.4978 2.51555-6.405 3.44332-9.8126 4.01425-1.7485.23194-3.63965.26755-4.92416-.46389-1.6236-.89206-1.42727-2.4085-1.57002-4.17487-.19623-2.01594-.8742-4.06771-2.4085-5.63774-4.56743-3.4076-9.04545-6.92236-13.3095-10.61547-.85634-.82062-2.78321-2.46208-1.74839-3.49678 4.79926-1.90901 3.69301-6.405 3.46118-10.45497.07133-2.53341-.4996-5.60202.49949-7.88573 1.64135-1.92687 4.40681-3.22923 6.67255-4.44242.21408-.10704.3747-.32113.41042-.57093.33888-2.248.80276-4.6565 1.23093-6.9045.71369-3.96078 5.90551-3.12219 8.74218-2.69402 3.26495.51735 4.79926 2.96168 7.76083 4.29977 1.6236.57082 3.42557.51735 4.97774-.19633 2.67616-1.14175 4.37109-4.56732 7.40399-3.62169 1.17757.39245 2.10535 1.57003 2.90811 2.78321 4.58518 7.77869 8.99199 15.94994 13.91615 23.53241 1.01685 1.81972 2.39064 3.74659 2.55126 5.7805-.00002.55306-.2141.92777-.67799 1.33808z"/><path d="m53.63433 41.45315c-4.28191 0-8.76004.41031-12.86347-1.01696-.76715-.48174-.60653-1.42737-.55307-2.06963 1.124-7.65379 1.94473-15.30758 1.30237-23.03281-.01775-.28552.19633-.53521.48174-.55307.28552-.03572.53521.17837.57093.46389.83848 7.92145.01786 15.91423-.90992 23.76425 0 .03572 0 .10715.01786.14276 3.80016.89206 7.92145.71369 11.79294.42817 1.35594-.14265 1.53431 1.80197.16062 1.8734z"/><path d="m21.94852 30.51655c-.1249.33899-.4996.53521-.83859.42817-.35674-.10704-.55307-.48174-.42817-.83859 1.58788-5.35233 2.97954-10.97221 2.80107-16.55648-.16051-1.57003-.26755-3.31842-1.28451-4.47813-1.55217.49949-4.53171 1.98034-5.94112 2.58698-1.32022.58868-2.6227 1.37369-4.06782 1.89115-1.14175.33898-1.55217-1.44512-.37459-1.69493 2.94372-1.19532 6.70827-3.12219 9.72342-4.24619.32113-.08918.39245-.16051.78501-.19623.85634-.01786 1.42727.94552 1.76625 1.57002 2.62259 7.06502-.17847 14.66534-2.14095 21.53423z"/><path d="m31.15448 38.25953c-2.2836 3.24709-4.38884 7.06511-7.9392 9.31311-.53532.32113-1.85554.53521-2.40861-.32113-.41031-.48175-.9991-1.51656-1.33808-2.06963-1.2489-2.14095-2.76535-5.0312-3.80016-6.88664-.71358.14276-1.67707.51735-2.37279.58879-.23194.03561-.55318.01775-.82073-.05357-.21408-.03572-.60665-.55307-.57093-.78502-.03572-4.87058.39245-9.83046-.05358-14.64758-.07132-.66011.96349-.80276 1.05267-.14265.67797 4.6565.41031 9.38443.53521 14.02308.4996-.10704 1.17757-.33899 1.4987-.42817.57093-.08918.96338-.42817 1.67707.10704 1.69493 2.31932 3.67526 6.94021 5.37019 9.313.01775.03572.05347.08929.05347.08929.08918 0 .32113-.01786.53521-.14276 3.21148-1.99819 5.29886-5.5308 7.67176-8.58156.17837-.2498.53521-.30327.76715-.1249s.28541.49949.14265.7493z"/><path d="m30.61431 54.15422c.49191-3.25355.53139-6.51489 1.27996-9.75917.08522-.2291.22683-.5612.53267-.693.3494-.15833.62777-.13304.89501-.0697 3.85301 1.2265 7.43181 3.2864 11.03321 5.01105 1.02533.49466-.20675 1.76277-1.24134 1.26545-3.16002-1.45494-6.97612-3.63929-10.20749-4.70881.16552.03526.39802-.11253.49757-.26967.02963-.07607-.01404.03824-.01404.03824-.82667 3.02948-1.01502 6.29164-1.80345 9.37278-.13235.59777-1.06741.4183-.9721-.18717z"/><path d="m30.89704 21.43131c1.03273-1.96083 2.84402-4.69045 3.5202-6.09846-.2259-.49571-1.89802-1.32111-2.56258-1.69504-1.10585-.57258-2.27744-1.0475-3.4695-1.52614-.31852-.12471-.47563-.48402-.35091-.80254.10596-.27063.38702-.42379.66278-.38751 2.37542.35713 4.70917 1.18488 6.67563 2.62707.31425.24891.72488.64505.90134 1.24754.20719.94592-.39973 1.7825-.83394 2.53562-1.06102 1.6912-2.4266 3.22543-3.75337 4.65202-.3653.40972-1.04944-.07549-.78965-.55256z"/></g></g></svg>