<svg id="Icons" height="512" viewBox="0 0 60 60" width="512" xmlns="http://www.w3.org/2000/svg"><path d="m27 7v4a13.015 13.015 0 0 0 -9 12.745 8.512 8.512 0 0 0 1 4.255l1.649 3.3a1.086 1.086 0 0 1 -.2 1.254l-1.524 1.524a1.086 1.086 0 0 0 -.146 1.355l1.291 2.014a1.089 1.089 0 0 1 -.131 1.339l-.916.955a1.1 1.1 0 0 0 .286 1.744l1.936 1.009a.814.814 0 0 1 .125 1.363l-2.62 2.049a1.978 1.978 0 0 0 -.75 1.558v6.762a4.625 4.625 0 0 0 4.2 4.774 4.313 4.313 0 0 0 3.978-2.351 4.273 4.273 0 0 0 7.636 0 4.313 4.313 0 0 0 3.986 2.351 4.625 4.625 0 0 0 4.2-4.774v-8.407a4.39 4.39 0 0 0 -.63-2.348 2.351 2.351 0 0 1 -.37-1.271v-2.157a1.124 1.124 0 0 0 -.308-.776l-2.311-2.236a1.131 1.131 0 0 1 0-1.552l2.761-2.879a1.128 1.128 0 0 0 -.113-1.654l-2.675-2.264a.948.948 0 0 1 -.04-1.411l3.365-3.193a1.148 1.148 0 0 0 .315-.814 12.958 12.958 0 0 0 -8.994-12.264v-4z" fill="#d9eafd"/><path d="m27 1h6a2 2 0 0 1 2 2v4a1 1 0 0 1 -1 1h-8a1 1 0 0 1 -1-1v-4a2 2 0 0 1 2-2z" fill="#467bbc"/><g fill="#262626"><path d="m17 47.464v6.763a5.637 5.637 0 0 0 5.167 5.773 5.189 5.189 0 0 0 4.017-1.647 5.236 5.236 0 0 0 7.632 0 5.242 5.242 0 0 0 3.819 1.647h.2a5.637 5.637 0 0 0 5.165-5.773v-2.227a1 1 0 0 0 -2 0v2.227a3.627 3.627 0 0 1 -3.241 3.773 3.366 3.366 0 0 1 -3.059-1.82 1 1 0 0 0 -1.769 0 3.275 3.275 0 0 1 -5.868 0 1.041 1.041 0 0 0 -1.77 0 3.33 3.33 0 0 1 -3.052 1.82 3.627 3.627 0 0 1 -3.241-3.773v-6.763a.979.979 0 0 1 .363-.77l2.62-2.049a1.815 1.815 0 0 0 -.278-3.038l-1.936-1.007-.027-.164.915-.955a2.079 2.079 0 0 0 .251-2.571l-1.291-2.015a.086.086 0 0 1 .012-.108l1.525-1.524a2.084 2.084 0 0 0 .39-2.408l-1.655-3.315a7.506 7.506 0 0 1 -.889-3.795 11.934 11.934 0 0 1 8.269-11.782 1 1 0 0 0 .731-.963v-2h4v2a1 1 0 0 0 .731.963 12.012 12.012 0 0 1 8.263 11.329c0 .032-.01.068 0 .062l-3.363 3.192a1.947 1.947 0 0 0 .081 2.9l2.675 2.263c.009.008.026.19.036.2l-2.761 2.878a2.151 2.151 0 0 0 .027 2.964l2.311 2.292v2.157a3.352 3.352 0 0 0 .528 1.811 3.378 3.378 0 0 1 .472 1.808v2.181a1 1 0 0 0 2 0v-2.181a5.4 5.4 0 0 0 -.788-2.888 1.347 1.347 0 0 1 -.212-.731v-2.157a2.131 2.131 0 0 0 -.613-1.495l-2.287-2.209a.13.13 0 0 1 0-.168l2.76-2.878a2.125 2.125 0 0 0 .581-1.62 2.091 2.091 0 0 0 -.769-1.49l-2.672-2.183 3.4-3.227a2.14 2.14 0 0 0 .593-1.529 13.959 13.959 0 0 0 -8.993-12.944v-1.3a2 2 0 0 0 2-2v-4a3 3 0 0 0 -3-3h-6a3 3 0 0 0 -3 3v4a2 2 0 0 0 2 2v1.3a14.029 14.029 0 0 0 -9 13.447 9.447 9.447 0 0 0 1.107 4.7l1.648 3.3a.087.087 0 0 1 -.016.1l-1.525 1.524a2.1 2.1 0 0 0 -.28 2.6l1.291 2.015a.088.088 0 0 1 -.011.107l-.915.955a2.1 2.1 0 0 0 .545 3.322l1.68.876-2.392 1.871a2.991 2.991 0 0 0 -1.132 2.347zm9-44.464a1 1 0 0 1 1-1h6a1 1 0 0 1 1 1v4h-8z"/><path d="m27 43a1.063 1.063 0 0 0 .125-.008l8-1a1 1 0 1 0 -.248-1.984l-8 1a1 1 0 0 0 .123 1.992z"/><path d="m34.958 23.713a1 1 0 0 0 -1.245-.671l-10 3a1 1 0 0 0 .287 1.958 1.023 1.023 0 0 0 .287-.042l10-3a1 1 0 0 0 .671-1.245z"/><path d="m25.8 34.98 5 1a.948.948 0 0 0 .2.02 1 1 0 0 0 .2-1.98l-5-1a1 1 0 1 0 -.392 1.96z"/></g></svg>